<svg width="28" height="29" xmlns="http://www.w3.org/2000/svg" xmlns:xlink="http://www.w3.org/1999/xlink" xmlns:svgjs="http://svgjs.com/svgjs" viewBox="0 0.501 28 27.997" fill="#fff"><svg xmlns="http://www.w3.org/2000/svg" width="28" height="29" viewBox="1.314 1.797 26.449 26.446"><path paint-order="stroke fill markers" fill-rule="evenodd" d="M14.539 28.244c-7.304 0-13.225-5.921-13.225-13.223 0-7.303 5.921-13.224 13.225-13.224 7.303 0 13.224 5.921 13.224 13.224 0 7.302-5.921 13.223-13.224 13.223zm0-23.968c-5.925 0-10.745 4.82-10.745 10.745 0 5.923 4.82 10.743 10.745 10.743 5.925 0 10.745-4.82 10.745-10.743 0-5.925-4.82-10.745-10.745-10.745zM13.31 20.48l-.002-.004a1.23 1.23 0 0 1-.836.33 1.24 1.24 0 0 1-1.24-1.24c0-.362.158-.684.405-.91l-.003-.004 3.963-3.631-3.963-3.632.003-.004a1.23 1.23 0 0 1-.405-.91c0-.685.556-1.24 1.24-1.24.323 0 .615.127.836.33l.002-.004 4.96 4.546a1.24 1.24 0 0 1 0 1.827l-4.96 4.546z"/></svg></svg>